# xmcd CD database file
#
# Track frame offsets:
#	150
#	19240
#	43052
#	67677
#	75700
#	97735
#	112622
#	141347
#	154317
#	186012
#	204957
#	217372
#	233120
#	249275
#	259732
#	272412
#	285417
#
# Disc length: 4209 seconds
#
# Revision: 2
# Processed by: cddbd v1.5.1PL0 Copyright (c) Steve Scherf et al.
# Submitted via: CDex 1.51
#
DISCID=e1106f11
DTITLE=Various Artist - LOVE JAZZ SCREEN
DYEAR=1900
DGENRE=Jazz
TTITLE0=カウント・ベイシー/ロシアより愛をこめて
TTITLE1=カサンドラ・ウィルソン/ムーン・リヴァー
TTITLE2=ジョージ・アダムス/この素晴らしき世界
TTITLE3=ボビー・ダーリン/シャレード
TTITLE4=フレディ・ローチ/アンチェインド・メロディ
TTITLE5=マリーナ・ショウ/ラスト・タンゴ・イン・パリ
TTITLE6=ルー・ドナルドソン/いそしぎ
TTITLE7=ナット・キング・コール/スマイル
TTITLE8=グラント・グリーン/栄光への脱出
TTITLE9=ジョニー・ハートマン/マイ・フェイヴァリット・シングス
TTITLE10=リー・モーガン/真夜中のカーボーイ
TTITLE11=小林 桂/イン・マイ・ライフ
TTITLE12=リチャード・グルーヴ・ホルムズ/ある愛の詩
TTITLE13=メル・トーメ/雨にぬれても
TTITLE14=ジョー・パス/酒とバラの日々
TTITLE15=サラ・ヴォーン/フライ・ミー・トゥ・ザ・ムーン
TTITLE16=デューク・ジョーダン/危険な関係
EXTD=
EXTT0=
EXTT1=
EXTT2=
EXTT3=
EXTT4=
EXTT5=
EXTT6=
EXTT7=
EXTT8=
EXTT9=
EXTT10=
EXTT11=
EXTT12=
EXTT13=
EXTT14=
EXTT15=
EXTT16=
PLAYORDER=
